<?xml version="1.0" encoding="UTF-8" standalone="no"?>
<!DOCTYPE svg PUBLIC "-//W3C//DTD SVG 1.1//EN" "http://www.w3.org/Graphics/SVG/1.1/DTD/svg11.dtd">
<svg width="100%" height="100%" viewBox="0 0 1300 1300" version="1.1" xmlns="http://www.w3.org/2000/svg" xmlns:xlink="http://www.w3.org/1999/xlink" xml:space="preserve" style="fill-rule:evenodd;clip-rule:evenodd;stroke-linecap:round;stroke-linejoin:round;stroke-miterlimit:1.5;">
    <g transform="matrix(1,0,0,1,-590.157,-1103.94)">
        <g transform="matrix(0.827224,0,0,0.807048,284.569,490.133)">
            <path d="M1940.93,1565.96C1940.93,1121.44 1588.85,760.555 1155.17,760.555C721.501,760.555 369.414,1121.44 369.414,1565.96C369.414,2010.47 721.501,2371.36 1155.17,2371.36C1588.85,2371.36 1940.93,2010.47 1940.93,1565.96Z" style="fill:rgb(255,226,50);"/>
        </g>
        <g transform="matrix(1,0,0,1,-50.8101,290.99)">
            <g>
                <path d="M1470.21,1879.36L1884.29,2087.18" style="fill:none;stroke:rgb(0,64,255);stroke-width:8.33px;"/>
                <path d="M1039.38,1898.82L752.308,2096.38" style="fill:none;stroke:rgb(0,64,255);stroke-width:8.33px;"/>
                <path d="M1032.41,1700.84L1045.2,1866C1215.57,1966.43 1351.73,1976.84 1440.37,1861.76L1440.37,1486.77" style="fill:none;stroke:rgb(0,64,255);stroke-width:8.33px;"/>
                <path d="M1045.75,1863.47L1039.38,1897.6C1138.86,2014.49 1434.6,2019.22 1470.03,1884.58L1440.37,1823.66" style="fill:none;stroke:rgb(0,64,255);stroke-width:8.33px;"/>
                <path d="M1055.4,1642.04C1097.99,1669.86 1134.71,1659.4 1169.58,1641.45" style="fill:none;stroke:rgb(0,64,255);stroke-width:8.33px;"/>
            </g>
            <g>
                <path d="M1222.55,1541.69L1235.45,1576.12" style="fill:none;stroke:rgb(0,64,255);stroke-width:8.33px;"/>
                <path d="M1188.41,1535.88L1198.41,1564.64" style="fill:none;stroke:rgb(0,64,255);stroke-width:8.33px;"/>
                <path d="M1153.1,1524.92L1160.16,1546.84" style="fill:none;stroke:rgb(0,64,255);stroke-width:8.33px;"/>
                <path d="M1114.85,1519.04L1118.38,1541.55" style="fill:none;stroke:rgb(0,64,255);stroke-width:8.33px;"/>
                <path d="M1080.71,1521.98L1077.18,1540.37" style="fill:none;stroke:rgb(0,64,255);stroke-width:8.33px;"/>
                <path d="M1043.05,1529.04L1034.22,1551.7" style="fill:none;stroke:rgb(0,64,255);stroke-width:8.33px;"/>
                <path d="M1014.21,1533.75L993.609,1569.65" style="fill:none;stroke:rgb(0,64,255);stroke-width:8.33px;"/>
                <path d="M1014.8,1601.43C1043.15,1572.47 1056.11,1558 1094.67,1571.14C1121.86,1550.62 1172.82,1571.56 1198.41,1595.54L1014.8,1601.43Z" style="fill:none;stroke:rgb(0,64,255);stroke-width:8.33px;"/>
            </g>
            <path d="M1058.42,1297.7C1060.08,1287.25 1066.03,1277.98 1074.84,1272.13C1090.31,1261.85 1101.67,1265.96 1111.13,1284.46L1154.68,1399.04C1179.22,1411.54 1186.5,1426.67 1175.88,1444.52C1169.15,1455.8 1155.45,1460.85 1143.02,1456.62C1143,1456.66 1143,1456.66 1143,1456.66C1131.92,1452.91 1119.69,1455.14 1110.65,1462.56C1091.7,1478.29 1068.87,1473.66 1050.51,1455.54C1050.51,1455.54 1038.58,1456.96 1026.43,1458.4C1020.41,1459.12 1014.46,1456.57 1010.83,1451.7C1007.2,1446.84 1006.44,1440.4 1008.84,1434.83C1013.8,1423.24 1020.41,1414.28 1028.62,1410.3C1036.7,1406.36 1042.35,1398.73 1043.76,1389.85C1047.77,1364.65 1054.89,1319.89 1058.42,1297.7Z" style="fill:none;stroke:rgb(0,64,255);stroke-width:8.33px;"/>
            <g>
                <g transform="matrix(1.29808,0,0,1.29808,-294.14,-394.859)">
                    <circle cx="979.024" cy="1330.64" r="19.586" style="fill:rgb(0,64,255);"/>
                </g>
                <path d="M1184.2,1337.29C1205.46,1289 1250.76,1292.4 1313.09,1332.41" style="fill:none;stroke:rgb(0,64,255);stroke-width:8.33px;"/>
                <g transform="matrix(1.29808,0,0,1.29808,-34.0122,-396.859)">
                    <circle cx="979.024" cy="1330.64" r="19.586" style="fill:rgb(0,64,255);"/>
                </g>
                <path d="M913.701,1337.29C954.531,1293.47 992.666,1292.99 1028.65,1327.17" style="fill:none;stroke:rgb(0,64,255);stroke-width:8.33px;"/>
            </g>
            <g>
                <path d="M1153.37,1223.18C1204.53,1217.46 1250.94,1215.76 1286.53,1223.18L1335.82,1274.16L1268.14,1250.29L1151.17,1256.51L1153.37,1223.18Z" style="fill:rgb(0,64,255);"/>
                <path d="M906.194,1232.97C959.89,1218.05 1005.8,1220.13 1043.76,1239.59C1043.76,1239.59 1045.25,1245.35 1046.73,1251.07C1047.45,1253.89 1046.89,1256.89 1045.19,1259.25C1043.49,1261.61 1040.82,1263.1 1037.92,1263.3C1002.16,1265.48 963.618,1263.02 922.084,1261.25C915.624,1260.97 909.763,1257.39 906.583,1251.76C902.814,1245.18 902.98,1238.94 906.194,1232.97Z" style="fill:rgb(0,64,255);"/>
            </g>
            <g>
                <g transform="matrix(1,0,0,1,-11.4503,-15.9802)">
                    <path d="M1489.36,1348.95L1508.17,1365.69" style="fill:none;stroke:rgb(0,64,255);stroke-width:8.33px;"/>
                </g>
                <g transform="matrix(1,0,0,1,-7.68376,-15.1415)">
                    <path d="M1456.09,1437.26C1466.71,1431.22 1485.99,1425.58 1470.19,1399.12C1455.12,1373.87 1484.28,1341.29 1488.99,1336.94C1497.3,1329.26 1506.2,1327.56 1515.1,1324.67" style="fill:none;stroke:rgb(0,64,255);stroke-width:8.33px;"/>
                </g>
                <g transform="matrix(1,0,0,1,-14.5266,5.23829)">
                    <path d="M1467.54,1300.46C1487.42,1279.67 1506.64,1274.88 1529.83,1282.9C1538.24,1285.79 1543.47,1294.19 1542.34,1303.02C1539.21,1330.53 1541.13,1363.06 1513.94,1399.09C1505.79,1409.9 1504.71,1423 1503.85,1436.31C1502.24,1456.82 1487.54,1473.92 1467.5,1478.58C1460.45,1480.24 1454.9,1481.53 1454.9,1481.53" style="fill:none;stroke:rgb(0,64,255);stroke-width:8.33px;"/>
                </g>
            </g>
            <path d="M942.397,1021.43C907.765,1092.35 882.391,1181.9 875.178,1258.56L896.73,1341.81C896.73,1341.81 894.54,1388.36 892.864,1423.99C891.688,1448.97 897.993,1473.74 910.972,1495.12C933.598,1532.23 953.32,1572.22 968.996,1614.42C977.18,1636.46 989.673,1656.65 1005.75,1673.82C1020.26,1689.46 1038.51,1708.95 1053.35,1724.8C1071.82,1744.52 1097.31,1756.18 1124.31,1757.26C1190.11,1759.94 1241.1,1750.38 1271.74,1724.01C1271.74,1724.01 1375.86,1631.98 1416.6,1595.97C1426.9,1586.86 1433.21,1574.08 1434.17,1560.37C1439.35,1486.87 1456.09,1249.14 1456.09,1249.14" style="fill:none;stroke:rgb(0,64,255);stroke-width:8.33px;"/>
            <path d="M930.155,1023.86C1107.28,978.061 1229.67,999.282 1330.71,1046.63C1330.71,1046.63 1359.39,1122.9 1370.5,1152.44C1373.35,1160.04 1377.68,1166.99 1383.23,1172.91C1405.38,1196.5 1463.62,1258.56 1463.62,1258.56C1463.62,1258.56 1439.04,1135.67 1426.25,1071.73C1421.27,1046.8 1406.23,1025.03 1384.67,1011.56C1147.17,862.732 1015.99,941.388 930.155,1023.86Z" style="fill:rgb(0,64,255);"/>
            <g>
                <path d="M1055.6,1717.78L1061.12,1757.69" style="fill:none;stroke:rgb(0,64,255);stroke-width:8.33px;"/>
                <path d="M1085.03,1740.86L1087.79,1768.35" style="fill:none;stroke:rgb(0,64,255);stroke-width:8.33px;"/>
                <path d="M1113.4,1746.77L1114.53,1776.63" style="fill:none;stroke:rgb(0,64,255);stroke-width:8.33px;"/>
                <g transform="matrix(1,0,0,1,-3.37482,0)">
                    <path d="M1142.96,1753.04L1144.8,1776.63" style="fill:none;stroke:rgb(0,64,255);stroke-width:8.33px;"/>
                </g>
                <path d="M1165.39,1750.62L1165.63,1776.63" style="fill:none;stroke:rgb(0,64,255);stroke-width:8.33px;"/>
                <path d="M1198.13,1746.28L1195.63,1776.63" style="fill:none;stroke:rgb(0,64,255);stroke-width:8.33px;"/>
                <path d="M1225.72,1737.73L1221.51,1768.35" style="fill:none;stroke:rgb(0,64,255);stroke-width:8.33px;"/>
                <path d="M1248.71,1726.05L1245.99,1763.62" style="fill:none;stroke:rgb(0,64,255);stroke-width:8.33px;"/>
            </g>
        </g>
    </g>
</svg>
